<svg width="512" height="512" viewBox="0 0 512 512" xmlns="http://www.w3.org/2000/svg">
  <!-- background -->
  <rect width="512" height="512" rx="96" fill="#0b0f13"/>
  <!-- letters -->
  <g fill="#b9f1dd">
    <path d="M154 338c-23 0-41-7-54-20-13-13-19-31-19-54s6-41 19-54c13-13 31-20 54-20 20 0 38 5 53 16l-15 24c-12-8-25-12-38-12-14 0-25 4-33 12-8 8-12 19-12 34s4 26 12 34c8 8 19 12 33 12 14 0 27-4 39-12l14 23c-16 11-33 17-53 17z"/>
    <path d="M360 338h-86V192h79c19 0 34 5 45 15 11 10 16 24 16 41 0 11-3 20-7 28-5 8-11 14-20 18l32 44h-35l-27-38h-35v38zm-43-61h36c9 0 16-2 21-7 5-5 7-11 7-20 0-9-2-15-7-20-5-5-12-7-21-7h-36v54z"/>
  </g>
</svg>
